<?xml version="1.0" encoding="UTF-8" standalone="no"?>
<!-- Created with Inkscape (http://www.inkscape.org/) -->

<svg
   width="192.08727mm"
   height="46.90292mm"
   viewBox="0 0 192.08727 46.90292"
   version="1.1"
   id="svg1"
   xml:space="preserve"
   inkscape:version="1.4.2 (f4327f4, 2025-05-13)"
   sodipodi:docname="ascendev-logo-negro.svg"
   xmlns:inkscape="http://www.inkscape.org/namespaces/inkscape"
   xmlns:sodipodi="http://sodipodi.sourceforge.net/DTD/sodipodi-0.dtd"
   xmlns="http://www.w3.org/2000/svg"
   xmlns:svg="http://www.w3.org/2000/svg"><sodipodi:namedview
     id="namedview1"
     pagecolor="#505050"
     bordercolor="#ffffff"
     borderopacity="1"
     inkscape:showpageshadow="0"
     inkscape:pageopacity="0"
     inkscape:pagecheckerboard="1"
     inkscape:deskcolor="#505050"
     inkscape:document-units="mm"
     inkscape:zoom="0.52827581"
     inkscape:cx="375.75069"
     inkscape:cy="91.808103"
     inkscape:window-width="1440"
     inkscape:window-height="837"
     inkscape:window-x="-8"
     inkscape:window-y="-8"
     inkscape:window-maximized="1"
     inkscape:current-layer="layer1" /><defs
     id="defs1" /><g
     inkscape:label="Capa 1"
     inkscape:groupmode="layer"
     id="layer1"
     transform="translate(-5.8208477,-124.40365)"><path
       style="fill:#000000"
       d="m 5.8208477,171.18451 v -0.11836 l 5.9952933,-9.73737 5.995293,-9.73737 3.086365,-5.02709 3.086365,-5.02708 2.77708,-4.49791 2.77708,-4.49792 2.206796,-3.70417 2.206796,-3.70416 0.331543,-0.36472 0.331543,-0.36471 0.569537,1.11639 0.569537,1.11638 5.232697,8.64104 5.232697,8.64103 2.522264,4.10104 2.522265,4.10104 5.870028,9.525 5.870029,9.525 -17.653605,0.068 -17.653604,0.068 -0.0992,-0.0992 -0.0992,-0.0992 3.117973,-5.19226 3.117974,-5.19226 4.982516,-0.002 4.982517,-0.002 -0.595791,-0.99219 -0.595792,-0.99218 -3.434881,-5.55625 -3.43488,-5.55625 -0.645091,-1.02491 -0.64509,-1.02491 -0.354256,0.36345 -0.354256,0.36345 -6.585965,10.84792 -6.585964,10.84791 -1.038698,1.65365 -1.038698,1.65365 H 12.105453 5.8208477 Z m 56.9176953,-7.98281 -2.914308,-4.66084 1.280613,-1.24736 1.280614,-1.24736 0.558403,-1.09456 0.558402,-1.09456 0.391837,-1.66197 0.391836,-1.66198 0.0039,-1.46576 0.0039,-1.46577 -0.395614,-1.51886 -0.395615,-1.51887 -0.56233,-1.11641 -0.562331,-1.11641 -0.920811,-1.13541 -0.92081,-1.13541 -1.36239,-0.92172 -1.36239,-0.92172 -1.681516,-0.52256 -1.681515,-0.52255 -3.742443,-0.004 -3.742442,-0.004 -0.293318,-0.19438 -0.293318,-0.19439 -3.194857,-5.29166 -3.194857,-5.29167 6.927758,-0.0811 6.927758,-0.0811 1.947487,0.30347 1.947487,0.30347 1.624388,0.52465 1.624388,0.52464 1.852083,0.90886 1.852083,0.90886 1.815154,1.36362 1.815154,1.36363 1.558214,1.87527 1.558214,1.87528 1.177093,2.38125 1.177094,2.38125 0.410489,1.62574 0.41049,1.62575 0.268518,2.61664 0.268519,2.61665 -0.265132,2.55685 -0.265133,2.55686 -0.790876,2.46117 -0.790876,2.46117 -1.230565,2.09699 -1.230564,2.09699 -1.903139,1.90314 -1.903138,1.90314 -0.558651,0.29898 -0.558651,0.29898 z m 38.200007,-8.00932 -1.058332,-0.48846 -0.577688,-0.63021 -0.577688,-0.63022 -0.282208,-0.74483 -0.282208,-0.74483 v -0.24735 -0.24736 h 1.701962 1.701962 l 0.16804,0.52944 0.16804,0.52945 0.53932,0.28863 0.53931,0.28864 1.10333,0.0167 1.10332,0.0167 0.5884,-0.31491 0.5884,-0.3149 v -0.64284 -0.64284 l -0.51103,-0.27349 -0.51102,-0.27349 -1.80408,-0.41255 -1.80408,-0.41254 -1.06411,-0.50828 -1.064115,-0.50828 -0.431138,-0.73322 -0.431137,-0.73323 -0.05539,-0.66145 -0.05539,-0.66146 0.02929,-0.75873 0.02929,-0.75874 0.998153,-0.99815 0.998157,-0.99815 1.05237,-0.29216 1.05236,-0.29216 h 1.19063 1.19062 l 0.98398,0.27327 0.98397,0.27328 0.81147,0.68281 0.81147,0.6828 0.38737,0.7491 0.38737,0.74909 v 0.41002 0.41001 h -1.48135 -1.48134 l -0.74148,-0.79375 -0.74147,-0.79375 h -1.04347 -1.04346 l -0.45914,0.50735 -0.45915,0.50735 0.0874,0.60516 0.0874,0.60517 1.19062,0.33265 1.19063,0.33265 1.89524,0.53984 1.89524,0.53985 0.71238,0.84661 0.71237,0.84661 -0.11373,1.57235 -0.11373,1.57235 -0.94755,0.86836 -0.94755,0.86836 -1.01717,0.28245 -1.01717,0.28244 -1.85208,-0.004 -1.85209,-0.004 z m 14.55208,0.18084 -0.79375,-0.27746 -0.89186,-0.66554 -0.89186,-0.66554 -0.66063,-1.44301 -0.66063,-1.44301 0.11604,-2.28946 0.11603,-2.28946 0.56888,-1.09889 0.56888,-1.09888 0.94861,-0.78192 0.94861,-0.78193 1.008,-0.302 1.00799,-0.302 h 1.17895 1.17894 l 1.19625,0.4076 1.19626,0.40761 0.84943,0.87639 0.84943,0.87639 0.37004,1.22955 0.37004,1.22954 h -1.68931 -1.6893 l -0.16576,-0.52227 -0.16576,-0.52226 -0.6815,-0.53607 -0.6815,-0.53607 h -0.77121 -0.77121 l -0.7291,0.37704 -0.7291,0.37703 -0.33493,0.73509 -0.33493,0.73509 -0.14199,1.20298 -0.14198,1.20298 0.29949,1.11029 0.29949,1.1103 0.69076,0.54335 0.69076,0.54335 h 1.13143 1.13142 l 0.68498,-0.81405 0.68498,-0.81405 v -0.24428 -0.24428 h 1.5875 1.5875 v 0.67459 0.6746 l -0.37326,0.71447 -0.37325,0.71446 -0.75122,0.71357 -0.75123,0.71357 -0.98369,0.41091 -0.98369,0.41091 -1.66214,-0.0209 -1.66215,-0.0209 z m 13.49375,-0.30731 -1.32291,-0.62138 -0.45292,-0.51018 -0.45291,-0.51019 -0.56985,-1.28823 -0.56984,-1.28823 -0.0116,-1.8771 -0.0116,-1.87711 0.58429,-1.31962 0.58429,-1.31962 0.58239,-0.62436 0.58239,-0.62435 1.05833,-0.56171 1.05834,-0.56171 h 1.85208 1.85208 l 1.05834,0.56171 1.05833,0.56171 0.57889,0.62106 0.57889,0.62106 0.53978,1.19062 0.53978,1.19063 0.006,1.52135 0.006,1.52136 h -4.64804 -4.64804 l 0.17193,0.59531 0.17192,0.59531 0.46673,0.66146 0.46672,0.66146 0.63595,0.34109 0.63595,0.34109 1.03281,-0.12292 1.0328,-0.12293 0.74242,-0.54889 0.74242,-0.5489 h 1.57344 1.57345 l -0.15178,0.58038 -0.15177,0.58038 -1.08023,1.0786 -1.08022,1.0786 -1.08903,0.32539 -1.08903,0.3254 -1.55681,-0.003 -1.5568,-0.003 z m 5.57497,-8.30315 -0.17093,-0.7276 -0.66625,-0.59531 -0.66625,-0.59532 h -1.06098 -1.06097 l -0.50903,0.27243 -0.50904,0.27243 -0.39961,0.77276 -0.39962,0.77277 v 0.27772 0.27773 h 2.80681 2.80681 z m 40.70625,8.2988 -1.34379,-0.62573 -0.55839,-0.70989 -0.5584,-0.70988 -0.44644,-1.16898 -0.44643,-1.16898 0.11927,-2.18918 0.11928,-2.18918 0.44803,-0.8557 0.44803,-0.8557 0.92343,-0.92343 0.92343,-0.92343 1.51934,-0.44308 1.51934,-0.44308 1.45521,0.30243 1.4552,0.30243 1.04388,0.73158 1.04387,0.73157 0.61401,1.19314 0.61401,1.19313 0.16632,1.78101 0.16631,1.78101 h -4.66847 -4.66847 v 0.41001 0.41001 l 0.40136,0.77614 0.40135,0.77613 0.77613,0.40135 0.77613,0.40136 h 0.90226 0.90226 l 0.97472,-0.66146 0.97471,-0.66146 h 1.44346 1.44346 v 0.14543 0.14543 l -0.37326,0.71447 -0.37325,0.71446 -0.75123,0.71357 -0.75122,0.71357 -0.98369,0.41091 -0.98369,0.41091 -1.66215,-0.003 -1.66214,-0.003 z m 5.58911,-8.2988 -0.17765,-0.7276 -0.45594,-0.46528 -0.45594,-0.46527 -0.78415,-0.2189 -0.78415,-0.21891 -0.84441,0.22471 -0.84441,0.22471 -0.5016,0.72405 -0.5016,0.72405 -0.16704,0.46303 -0.16704,0.46302 h 2.9308 2.93079 z m -99.908926,7.28743 0.491771,-1.40045 2.672894,-7.25608 2.672894,-7.25608 v -0.0861 -0.0861 h 1.952276 1.952276 l 0.283122,0.7276 0.283122,0.72761 2.822338,7.66501 2.822339,7.66501 0.129946,0.33863 0.129946,0.33864 h -1.9661 -1.9661 l -0.622331,-1.98438 -0.622332,-1.98437 h -3.198464 -3.198464 l -0.657558,1.91823 -0.657557,1.91822 -1.907895,0.0775 -1.907894,0.0775 z m 8.975411,-8.72638 -1.032775,-3.22489 -0.0707,-0.0707 -0.0707,-0.0707 -1.090934,3.2956 -1.090934,3.29559 h 2.19441 2.194409 z m 50.572565,3.48947 v -6.61458 h 1.5875 1.5875 v 0.92604 0.92604 h 0.16036 0.16035 l 0.50395,-0.64066 0.50394,-0.64066 1.17668,-0.44938 1.17668,-0.44938 1.1442,0.17159 1.1442,0.17158 0.86666,0.52705 0.86666,0.52705 0.50797,1.11901 0.50798,1.11901 0.006,4.96094 0.006,4.96094 h -1.70274 -1.70274 l -0.0832,-4.6032 -0.0832,-4.60319 -0.49045,-0.54118 -0.49046,-0.54119 -0.78379,-0.17215 -0.78379,-0.17215 -0.78875,0.32671 -0.78875,0.32672 -0.3844,0.74334 -0.3844,0.74334 v 4.24647 4.24648 h -1.71979 -1.71979 z m 15.08125,-2.11761 v -8.77679 l 4.1951,0.0894 4.19511,0.0894 1.82416,0.92819 1.82417,0.92818 0.8563,1.27915 0.8563,1.27914 0.31132,1.09996 0.31132,1.09996 2.4e-4,2.26272 2.3e-4,2.26273 -0.71979,1.57373 -0.7198,1.57374 -0.71264,0.75227 -0.71265,0.75228 -1.32292,0.70001 -1.32291,0.7 -4.43177,0.0914 -4.43177,0.0914 z m 8.79905,5.06788 0.95298,-0.58897 0.54794,-1.13189 0.54794,-1.13189 -0.006,-2.09928 -0.006,-2.09928 -0.48845,-1.05833 -0.48845,-1.05834 -0.63022,-0.56995 -0.63022,-0.56995 -1.05833,-0.28847 -1.05833,-0.28847 -1.52136,-10e-4 -1.52135,-0.001 v 5.85402 5.85401 l 2.20325,-0.11564 2.20325,-0.11564 z m 23.27321,-2.60927 -2.19041,-6.29412 0.009,-0.26459 0.009,-0.26458 h 1.65257 1.65256 l 1.2815,4.36563 1.2815,4.36562 0.13555,0.39688 0.13554,0.39687 0.20672,-0.52917 0.20671,-0.52916 0.70959,-2.51354 0.70958,-2.51355 0.5367,-1.78593 0.5367,-1.78594 h 1.69402 1.69402 v 0.23156 0.23156 l -2.20746,6.31687 -2.20745,6.31688 -1.82788,0.0764 -1.82787,0.0764 z"
       id="path1" /></g></svg>
