<?xml version="1.0" encoding="UTF-8" standalone="no"?>
<!-- Created with Inkscape (http://www.inkscape.org/) -->

<svg
   width="191.9558mm"
   height="46.90292mm"
   viewBox="0 0 191.9558 46.90292"
   version="1.1"
   id="svg1"
   xml:space="preserve"
   inkscape:version="1.4.2 (f4327f4, 2025-05-13)"
   sodipodi:docname="ascendev-logo-azul-y-negro.svg"
   xmlns:inkscape="http://www.inkscape.org/namespaces/inkscape"
   xmlns:sodipodi="http://sodipodi.sourceforge.net/DTD/sodipodi-0.dtd"
   xmlns:xlink="http://www.w3.org/1999/xlink"
   xmlns="http://www.w3.org/2000/svg"
   xmlns:svg="http://www.w3.org/2000/svg"><sodipodi:namedview
     id="namedview1"
     pagecolor="#505050"
     bordercolor="#ffffff"
     borderopacity="1"
     inkscape:showpageshadow="0"
     inkscape:pageopacity="0"
     inkscape:pagecheckerboard="1"
     inkscape:deskcolor="#505050"
     inkscape:document-units="mm"
     inkscape:zoom="1.0565516"
     inkscape:cx="299.08619"
     inkscape:cy="27.921021"
     inkscape:window-width="1440"
     inkscape:window-height="837"
     inkscape:window-x="-8"
     inkscape:window-y="-8"
     inkscape:window-maximized="1"
     inkscape:current-layer="svg1"
     showgrid="false" /><defs
     id="defs1"><linearGradient
       id="linearGradient15"
       inkscape:collect="always"><stop
         style="stop-color:#008080;stop-opacity:1;"
         offset="0"
         id="stop15" /><stop
         style="stop-color:#00d4d4;stop-opacity:1;"
         offset="1"
         id="stop16" /></linearGradient><linearGradient
       id="linearGradient13"
       inkscape:collect="always"><stop
         style="stop-color:#008080;stop-opacity:1;"
         offset="0"
         id="stop13" /><stop
         style="stop-color:#00d4d4;stop-opacity:1;"
         offset="0.55059522"
         id="stop14" /></linearGradient><linearGradient
       id="swatch12"><stop
         style="stop-color:#ffffff;stop-opacity:1;"
         offset="0"
         id="stop12" /></linearGradient><linearGradient
       inkscape:collect="always"
       xlink:href="#linearGradient13"
       id="linearGradient14"
       x1="5.9526081"
       y1="147.89088"
       x2="197.37215"
       y2="147.89088"
       gradientUnits="userSpaceOnUse" /><linearGradient
       inkscape:collect="always"
       xlink:href="#linearGradient15"
       id="linearGradient16"
       x1="2.7207642"
       y1="27.75001"
       x2="191.32394"
       y2="27.75001"
       gradientUnits="userSpaceOnUse" /></defs><g
     inkscape:label="Capa 1"
     inkscape:groupmode="layer"
     id="layer1"
     style="display:inline;fill:#000000"
     transform="translate(-5.9526082,-124.43943)"><path
       id="path1"
       style="fill:#000000;fill-opacity:1"
       d="m 53.842708,126.02952 -6.927742,0.0811 -6.927743,0.0806 3.194637,5.29219 3.195154,5.29115 0.293006,0.19482 0.293522,0.1943 3.742407,0.004 3.742407,0.004 1.681551,0.52245 1.681551,0.52297 1.362191,0.92139 1.362708,0.9219 0.920874,1.13534 0.920874,1.13533 0.562239,1.11672 0.56224,1.11622 0.395325,1.51877 0.395841,1.51877 -0.0041,1.46606 -0.0036,1.46554 -0.391708,1.66191 -0.392224,1.66244 -0.558105,1.0945 -0.558623,1.09451 -1.280542,1.24747 -1.280542,1.24695 2.914034,4.66121 2.914551,4.6607 0.558622,-0.2992 0.558623,-0.29869 1.903243,-1.90325 1.903243,-1.90324 1.230415,-2.09703 1.230416,-2.09703 0.791167,-2.46083 0.790649,-2.46135 0.2651,-2.55695 0.2651,-2.55695 -0.268201,-2.61638 -0.268717,-2.61689 -0.410311,-1.62574 -0.410828,-1.62574 -1.176672,-2.38125 -1.177189,-2.38125 -1.558561,-1.87482 -1.558045,-1.87534 -1.814876,-1.36374 -1.815393,-1.36374 -1.852083,-0.90899 -1.852084,-0.90847 -1.62419,-0.52504 -1.624707,-0.52451 -1.947168,-0.30334 z M 155.575,137.91871 v 8.77673 8.77724 l 4.43177,-0.0915 4.43177,-0.0915 1.32292,-0.70022 1.32291,-0.6997 0.71262,-0.75241 0.71262,-0.75241 0.71985,-1.57354 0.71986,-1.57355 -5.2e-4,-2.26291 v -2.26291 l -0.31109,-1.09968 -0.31161,-1.10019 -0.85628,-1.27899 -0.85628,-1.27899 -1.82418,-0.92863 -1.82417,-0.92811 -4.1951,-0.0894 z m 3.43907,2.95796 1.52135,0.001 1.52135,0.001 1.05834,0.28835 1.05833,0.28836 0.63045,0.56999 0.62994,0.56999 0.48886,1.05833 0.48834,1.05834 0.006,2.09961 0.006,2.0991 -0.54777,1.13171 -0.54829,1.13223 -0.95291,0.5886 -0.95343,0.59014 -2.20297,0.11576 -2.20348,0.11575 v -5.85442 z m 18.91822,0.97875 -1.51929,0.44287 -1.51928,0.44338 -0.92346,0.92346 -0.92346,0.92346 -0.44803,0.85525 -0.44804,0.85576 -0.11937,2.18953 -0.11937,2.18901 0.44648,1.16892 0.44649,1.16892 0.55862,0.71004 0.5581,0.71003 1.34411,0.62529 1.34358,0.62528 1.66192,0.003 1.66243,0.003 0.9834,-0.41083 0.98392,-0.41082 0.75138,-0.71365 0.75086,-0.71366 0.37362,-0.71416 0.3731,-0.71469 v -0.14521 -0.14573 h -1.44332 -1.44384 l -0.97462,0.66146 -0.97462,0.66146 h -0.90227 -0.90227 l -0.77618,-0.40101 -0.77618,-0.40153 -0.40101,-0.77618 -0.40152,-0.77618 v -0.40979 -0.41031 h 4.66845 4.66844 l -0.16639,-1.78077 -0.1664,-1.78129 -0.61392,-1.19269 -0.61391,-1.19321 -1.04387,-0.73174 -1.04386,-0.73173 -1.45521,-0.30231 z m 16.58762,0.34314 -0.5364,1.78593 -0.53692,1.78594 -0.70952,2.51354 -0.70951,2.51354 -0.20671,0.52917 -0.20671,0.52917 -0.13539,-0.39688 -0.13591,-0.39687 -1.28157,-4.36563 -1.28106,-4.36562 h -1.65261 -1.65262 l -0.009,0.26458 -0.009,0.26458 2.19056,6.29419 2.19005,6.29419 1.82779,-0.0765 1.8278,-0.0765 2.20762,-6.31693 2.20761,-6.31692 v -0.23151 -0.23151 h -1.69447 z m -16.32304,2.46806 0.78394,0.21911 0.78444,0.21911 0.45579,0.46509 0.45579,0.46508 0.17776,0.72761 0.17777,0.7276 h -2.93057 -2.93109 l 0.16692,-0.46302 0.16743,-0.46302 0.50126,-0.72399 0.50178,-0.72398 0.84439,-0.2248 z" /></g><g
     inkscape:groupmode="layer"
     id="layer2"
     inkscape:label="Capa 2"
     transform="translate(-5.9526082,-124.43943)"><path
       id="path1-5"
       style="display:inline;opacity:1;fill:url(#linearGradient14);fill-opacity:1"
       d="m 34.747233,124.43943 -0.331763,0.36484 -0.331762,0.36432 -2.206584,3.70416 -2.206584,3.70417 -2.777091,4.49792 -2.777092,4.49791 -3.086633,5.02709 -3.086116,5.02708 -5.9955,9.73739 -5.9954998,9.73739 v 0.11834 0.11886 h 6.2848878 6.284371 l 1.038696,-1.65365 1.038696,-1.65365 6.586162,-10.84791 6.586161,-10.84792 0.353984,-0.3638 0.3545,-0.36329 0.644922,1.02475 0.644922,1.02526 3.434932,5.55625 3.434933,5.55625 0.595829,0.99218 0.595829,0.99219 -4.982641,0.002 -4.982642,0.002 -3.117639,5.19244 -3.118156,5.19245 0.09922,0.0992 0.09922,0.0987 17.653703,-0.0677 17.653703,-0.0682 -5.869926,-9.525 -5.870443,-9.525 -2.522326,-4.10104 -2.52181,-4.10104 -5.232756,-8.64082 -5.232755,-8.64133 -0.569475,-1.11621 z M 197.2231,142.81712 c -0.01,-3.2e-4 -0.0177,-2.2e-4 -0.0248,5.2e-4 -0.0721,0.008 -0.14759,0.0278 -0.22221,0.0553 0.14469,0.0496 0.28101,0.0672 0.38654,0.001 0.005,-0.003 0.008,-0.007 0.009,-0.0103 v -5.2e-4 -5.1e-4 h 5.1e-4 v -5.2e-4 -5.2e-4 -5.1e-4 c -0.004,-0.0218 -0.092,-0.0418 -0.14831,-0.0439 z m -44.69133,12.0618 c -0.0598,0.19893 -0.12528,0.3936 -0.1974,0.58446 h 0.19792 z" /></g><path
     id="path1-5-8"
     style="display:inline;fill:url(#linearGradient16);fill-opacity:1"
     d="m 80.866899,13.48652 v 0.0863 0.0863 l -2.672705,7.25589 -2.672705,7.25588 -0.49196,1.40043 -0.49196,1.40044 1.907894,-0.0775 1.907894,-0.0775 0.657841,-1.91823 0.657324,-1.91823 h 3.198772 3.198254 l 0.622184,1.98437 0.622701,1.98438 h 1.965772 1.966288 L 91.112785,30.61057 90.98256,30.27209 88.16051,22.60692 85.337944,14.94176 85.054757,14.21415 84.77157,13.48655 h -1.952336 z m 60.567361,3.9057 -1.17667,0.44907 -1.17668,0.44959 -0.50384,0.64078 -0.50385,0.64027 h -0.16019 -0.16072 v -0.92604 -0.92604 h -1.5875 -1.5875 v 6.61458 l 5.2e-4,6.61459 h 1.71979 1.71979 V 26.70277 22.456 l 0.38448,-0.74311 0.38447,-0.74311 0.78858,-0.32711 0.7891,-0.32659 0.78342,0.17208 0.78393,0.17208 0.49041,0.54157 0.49041,0.54105 0.0832,4.60334 0.0832,4.60282 h 1.70274 1.70274 l -0.006,-4.96094 -0.006,-4.96094 -0.50797,-1.11879 -0.50798,-1.11931 -0.86662,-0.52659 -0.86661,-0.5271 -1.14412,-0.17156 z m -30.47566,0.0631 -1.00769,0.30231 -1.00821,0.30179 -0.94878,0.78186 -0.94826,0.78186 -0.56896,1.09916 -0.56895,1.09864 -0.11628,2.28979 -0.11575,2.28926 0.66042,1.44281 0.66094,1.44332 0.89194,0.66559 0.89142,0.6656 0.79375,0.2775 0.79375,0.27698 1.66243,0.0212 1.66191,0.0207 0.98392,-0.41083 0.98341,-0.41082 0.75137,-0.71366 0.75138,-0.71365 0.3731,-0.71417 0.3731,-0.71468 V 26.8615 26.18661 h -1.5875 -1.5875 v 0.24443 0.24443 l -0.68471,0.8139 -0.68523,0.8139 h -1.1312 -1.13119 l -0.69092,-0.54311 -0.69091,-0.54364 -0.29921,-1.11001 -0.29972,-1.11053 0.14211,-1.20302 0.14211,-1.20303 0.33486,-0.73484 0.33487,-0.73484 0.72915,-0.37724 0.72916,-0.37724 h 0.77101 0.77101 l 0.68161,0.53641 0.68161,0.53588 0.16589,0.52245 0.16536,0.52193 h 1.6893 1.68931 l -0.37001,-1.22938 -0.37,-1.22938 -0.84904,-0.87644 -0.84957,-0.87643 -1.1963,-0.40772 -1.19631,-0.40773 h -1.17874 z m -12.893788,0.003 -1.19062,5.2e-4 -1.05213,0.29197 -1.05214,0.29249 -0.998384,0.99787 -0.998389,0.99839 -0.02894,0.75861 -0.02946,0.75861 0.05529,0.66145 0.05529,0.66146 0.431498,0.73329 0.430982,0.73329 1.064023,0.5085 1.06402,0.50798 1.80454,0.41289 1.80402,0.41238 0.51108,0.27337 0.510558,0.27337 v 0.64285 0.64285 l -0.588068,0.31523 -0.5886,0.31471 -1.10329,-0.0165 -1.10329,-0.0171 -0.5395,-0.28835 -0.53899,-0.28888 -0.16795,-0.52916 -0.16846,-0.52969 h -1.701698 -1.702222 v 0.24753 0.24754 l 0.28267,0.74465 0.282154,0.74466 0.577742,0.63045 0.577226,0.62994 1.058338,0.48886 1.05833,0.48886 1.85208,0.004 1.85209,0.004 1.017498,-0.28267 1.017,-0.28216 0.94774,-0.86868 0.94723,-0.86816 0.11369,-1.57251 0.11369,-1.57252 -0.7121,-0.84646 -0.71262,-0.84646 -1.89498,-0.54002 -1.895488,-0.5395 -1.19062,-0.3328 -1.19063,-0.33279 -0.0873,-0.60513 -0.0873,-0.60513 0.4594,-0.50747 0.45889,-0.50746 h 1.04334 1.04387 l 0.74104,0.79375 0.741548,0.79375 h 1.48157 1.48104 V 21.279 20.8692 l -0.38705,-0.74931 -0.38758,-0.7493 -0.81132,-0.68265 -0.81132,-0.68264 -0.98392,-0.27337 -0.984428,-0.27337 z m -15.234209,0.0212 0.0708,0.0703 0.0708,0.0708 1.033012,3.22513 1.032495,3.22461 h -2.194188 -2.194698 l 1.09089,-3.29541 z m 41.296187,0.12454 -1.05833,0.56172 -1.05834,0.56172 -0.58239,0.62425 -0.58239,0.62425 -0.58447,1.31982 -0.58446,1.3193 0.0119,1.8774 0.0114,1.87689 0.56999,1.2883 0.56999,1.28829 0.45269,0.51005 0.45268,0.51004 1.32292,0.62167 1.32343,0.62063 1.55701,0.003 1.5565,0.003 1.08934,-0.32505 1.08882,-0.32556 1.08055,-1.07849 1.08004,-1.07848 0.15193,-0.58085 0.15141,-0.58032 h -1.57303 -1.57355 l -0.74259,0.5488 -0.74259,0.54932 -1.03249,0.12299 -1.03301,0.12248 -0.63562,-0.34107 -0.63614,-0.34106 -0.46664,-0.66146 -0.46664,-0.66146 -0.17208,-0.59531 -0.17208,-0.59532 h 4.64829 4.64778 l -0.006,-1.52135 -0.006,-1.52135 -0.5395,-1.19063 -0.54002,-1.19062 -0.57877,-0.62115 -0.57878,-0.62064 -1.05833,-0.56172 -1.05833,-0.56172 h -1.85209 z m 67.0481,0.69866 c -0.01,-3.2e-4 -0.0178,-2.2e-4 -0.0248,5.2e-4 -0.0721,0.008 -0.14759,0.0278 -0.22221,0.0553 0.14469,0.0496 0.28101,0.0672 0.38654,10e-4 0.005,-0.003 0.008,-0.007 0.009,-0.0103 v -5.2e-4 -5.1e-4 h 5.2e-4 v -5.2e-4 -5.2e-4 -5.1e-4 c -0.004,-0.0218 -0.092,-0.0418 -0.14831,-0.0439 z m -66.1572,2.06344 h 1.06092 1.06091 l 0.66663,0.59531 0.66611,0.59532 0.17105,0.7276 0.17053,0.7276 h -2.80655 -2.80706 v -0.2775 -0.27802 l 0.39998,-0.77256 0.39945,-0.77256 0.50902,-0.27285 z m -113.008087,16.93441 -5.17e-4,5.2e-4 h -5.16e-4 -5.17e-4 v 5.1e-4 h -5.17e-4 v 5.2e-4 l -5.17e-4,5.2e-4 c -8.3e-5,2.5e-4 5.8e-5,7.4e-4 0,0.001 -0.0021,0.0198 0.04277,0.10363 0.07648,0.11317 0.05423,0.0154 0.109202,0.0289 0.164331,0.0408 -0.07409,-0.0493 -0.151063,-0.10065 -0.230476,-0.15399 -0.0025,-0.002 -0.0046,-0.003 -0.0062,-0.003 h -5.16e-4 -5.17e-4 z m -9.2692018,4.68033 -0.019637,0.0326 c 0.021511,-10e-4 0.043622,-0.002 0.066146,-0.003 -0.015435,-0.01 -0.031016,-0.0197 -0.046509,-0.0295 z" /></svg>
