<?xml version="1.0" encoding="UTF-8" standalone="no"?>
<!-- Created with Inkscape (http://www.inkscape.org/) -->

<svg
   width="69.328636mm"
   height="46.902931mm"
   viewBox="0 0 69.328636 46.902931"
   version="1.1"
   id="svg1"
   xml:space="preserve"
   inkscape:version="1.4.2 (f4327f4, 2025-05-13)"
   sodipodi:docname="ascendev-logo-negro-solo-letras.svg"
   xmlns:inkscape="http://www.inkscape.org/namespaces/inkscape"
   xmlns:sodipodi="http://sodipodi.sourceforge.net/DTD/sodipodi-0.dtd"
   xmlns="http://www.w3.org/2000/svg"
   xmlns:svg="http://www.w3.org/2000/svg"><sodipodi:namedview
     id="namedview1"
     pagecolor="#505050"
     bordercolor="#ffffff"
     borderopacity="1"
     inkscape:showpageshadow="0"
     inkscape:pageopacity="0"
     inkscape:pagecheckerboard="1"
     inkscape:deskcolor="#505050"
     inkscape:document-units="mm"
     inkscape:zoom="0.52827581"
     inkscape:cx="375.75069"
     inkscape:cy="93.701054"
     inkscape:window-width="1440"
     inkscape:window-height="837"
     inkscape:window-x="-8"
     inkscape:window-y="-8"
     inkscape:window-maximized="1"
     inkscape:current-layer="layer1" /><defs
     id="defs1" /><g
     inkscape:label="Capa 1"
     inkscape:groupmode="layer"
     id="layer1"
     transform="translate(-5.8208333,-124.40378)"><path
       id="path1"
       style="fill:#000000"
       d="m 34.614941,124.40378 -0.331246,0.36483 -0.331762,0.36432 -2.206584,3.70417 -2.2071,3.70416 -2.777092,4.49792 -2.777091,4.49792 -3.086117,5.02708 -3.086633,5.02708 -5.994983,9.73739 -5.9954997,9.73739 v 0.11834 0.11886 h 6.2843707 6.284888 l 1.038696,-1.65365 1.038697,-1.65364 6.586161,-10.84792 6.585644,-10.84792 0.354501,-0.3638 0.353983,-0.36328 0.645439,1.02474 0.644922,1.02526 3.434932,5.55625 3.434933,5.55625 0.595829,0.99219 0.595829,0.99219 -4.982641,0.002 -4.982642,0.002 -3.118156,5.19245 -3.117639,5.19245 0.09922,0.0987 0.09922,0.0992 17.653186,-0.0677 17.653703,-0.0682 -5.869926,-9.525 -5.869926,-9.525 -2.522326,-4.10104 -2.522327,-4.10104 -5.232755,-8.64082 -5.232756,-8.64133 -0.569474,-1.11621 z m 19.227767,1.62574 -6.927742,0.0811 -6.927743,0.0806 3.194637,5.29219 3.195154,5.29115 0.293006,0.19482 0.293522,0.1943 3.742407,0.004 3.742407,0.004 1.681551,0.52245 1.681551,0.52297 1.362191,0.92139 1.362708,0.9219 0.920874,1.13534 0.920874,1.13533 0.562239,1.11672 0.56224,1.11622 0.395325,1.51877 0.395841,1.51877 -0.0041,1.46606 -0.0036,1.46554 -0.391708,1.66191 -0.392224,1.66244 -0.558105,1.0945 -0.558623,1.09451 -1.280542,1.24747 -1.280542,1.24695 2.914034,4.66121 2.914551,4.6607 0.558622,-0.2992 0.558623,-0.29869 1.903243,-1.90325 1.903243,-1.90324 1.230415,-2.09703 1.230416,-2.09703 0.791167,-2.46083 0.790649,-2.46135 0.2651,-2.55695 0.2651,-2.55695 -0.268201,-2.61638 -0.268717,-2.61689 -0.410311,-1.62574 -0.410828,-1.62574 -1.176672,-2.38125 -1.177189,-2.38125 -1.558561,-1.87482 -1.558045,-1.87534 -1.814876,-1.36374 -1.815393,-1.36374 -1.852083,-0.90899 -1.852084,-0.90847 -1.62419,-0.52504 -1.624707,-0.52451 -1.947168,-0.30334 z" /></g></svg>
